<?xml version="1.0" encoding="UTF-8" standalone="no" ?>
<!DOCTYPE svg PUBLIC "-//W3C//DTD SVG 1.1//EN" "http://www.w3.org/Graphics/SVG/1.1/DTD/svg11.dtd">
<svg xmlns="http://www.w3.org/2000/svg" xmlns:xlink="http://www.w3.org/1999/xlink" version="1.1" width="640" height="640" viewBox="0 0 640 640" xml:space="preserve">
<desc>Created with Fabric.js 4.6.0</desc>
<defs>
</defs>
<g transform="matrix(1.28 0 0 1.28 242.78 408.92)" id="mpFtUxB2r0h69tzoIvwO6"  >
<path style="stroke: rgb(0,0,0); stroke-width: 1; stroke-dasharray: none; stroke-linecap: butt; stroke-dashoffset: 0; stroke-linejoin: miter; stroke-miterlimit: 4; fill: rgb(255,255,255); fill-opacity: 0; fill-rule: nonzero; opacity: 1;" vector-effect="non-scaling-stroke"  transform=" translate(0, 0)" d="M 0 0 z" stroke-linecap="round" />
</g>
<g transform="matrix(1.28 0 0 2.04 319.86 408.28)" id="N5ZbA6UkxeUme_irkRfj0"  >
<filter id="SVGID_0" y="-20%" height="140%" x="-24%" width="148%" >
	<feGaussianBlur in="SourceAlpha" stdDeviation="0"></feGaussianBlur>
	<feOffset dx="9" dy="0" result="oBlur" ></feOffset>
	<feFlood flood-color="rgb(248,106,48)" flood-opacity="1"/>
	<feComposite in2="oBlur" operator="in" />
	<feMerge>
		<feMergeNode></feMergeNode>
		<feMergeNode in="SourceGraphic"></feMergeNode>
	</feMerge>
</filter>
<path style="stroke: rgb(214,32,223); stroke-width: 0; stroke-dasharray: none; stroke-linecap: butt; stroke-dashoffset: 0; stroke-linejoin: miter; stroke-miterlimit: 4; fill: rgb(252,127,64); fill-rule: nonzero; opacity: 1;filter: url(#SVGID_0);" vector-effect="non-scaling-stroke"  transform=" translate(0, 0)" d="M -100.60201 -45.76114 C -100.60201 -76.04892 -61.617450000000005 -100.60201 -13.527550000000005 -100.60201 L 13.527539999999995 -100.60201 L 13.527539999999995 -100.60201 C 61.617439999999995 -100.60201 100.602 -76.04892000000001 100.602 -45.761140000000005 L 100.602 48.907289999999996 L 100.602 48.907289999999996 C 100.602 77.45748999999999 63.853930000000005 100.60200999999999 18.522890000000004 100.60200999999999 L -17.92834 100.60200999999999 L -17.92834 100.60200999999999 C -63.58775 100.60200999999999 -100.60202000000001 77.28984 -100.60202000000001 48.532819999999994 z" stroke-linecap="round" />
</g>
<g transform="matrix(1.28 0 0 1.28 242.78 408.92)" id="mJq7E0CMo-ypSAfUj28fa"  >
<path style="stroke: rgb(0,0,0); stroke-width: 1; stroke-dasharray: none; stroke-linecap: butt; stroke-dashoffset: 0; stroke-linejoin: miter; stroke-miterlimit: 4; fill: rgb(255,255,255); fill-opacity: 0; fill-rule: nonzero; opacity: 1;" vector-effect="non-scaling-stroke"  transform=" translate(0, 0)" d="M 0 0 z" stroke-linecap="round" />
</g>
<g transform="matrix(1.28 0 0 1.28 268.48 614.45)" id="cUpi6ElGplDg0XztMrk8X"  >
<path style="stroke: rgb(0,0,0); stroke-width: 1; stroke-dasharray: none; stroke-linecap: butt; stroke-dashoffset: 0; stroke-linejoin: miter; stroke-miterlimit: 4; fill: rgb(255,255,255); fill-opacity: 0; fill-rule: nonzero; opacity: 1;" vector-effect="non-scaling-stroke"  transform=" translate(0, 0)" d="M 0 0 z" stroke-linecap="round" />
</g>
<g transform="matrix(1.28 0 0 1.28 268.48 614.45)" id="WQmjkohfmDpxAvAL5A3ub"  >
<path style="stroke: rgb(0,0,0); stroke-width: 1; stroke-dasharray: none; stroke-linecap: butt; stroke-dashoffset: 0; stroke-linejoin: miter; stroke-miterlimit: 4; fill: rgb(255,255,255); fill-opacity: 0; fill-rule: nonzero; opacity: 1;" vector-effect="non-scaling-stroke"  transform=" translate(0, 0)" d="M 0 0" stroke-linecap="round" />
</g>
<g transform="matrix(1.28 0 0 1.28 268.48 614.45)" id="h6tWzLkittR1RWfY4tfOZ"  >
<path style="stroke: rgb(0,0,0); stroke-width: 1; stroke-dasharray: none; stroke-linecap: butt; stroke-dashoffset: 0; stroke-linejoin: miter; stroke-miterlimit: 4; fill: rgb(255,255,255); fill-opacity: 0; fill-rule: nonzero; opacity: 1;" vector-effect="non-scaling-stroke"  transform=" translate(0, 0)" d="M 0 0" stroke-linecap="round" />
</g>
<g transform="matrix(1.28 0 0 1.28 396.93 614.45)" id="S-LGsOAF0XkXk5cUDWIvD"  >
<path style="stroke: rgb(0,0,0); stroke-width: 1; stroke-dasharray: none; stroke-linecap: butt; stroke-dashoffset: 0; stroke-linejoin: miter; stroke-miterlimit: 4; fill: rgb(255,255,255); fill-opacity: 0; fill-rule: nonzero; opacity: 1;" vector-effect="non-scaling-stroke"  transform=" translate(0, 0)" d="M 0 0 z" stroke-linecap="round" />
</g>
<g transform="matrix(1.28 0 0 1.28 268.48 614.45)" id="EI-1hxCvlY4PSSqCNsnfe"  >
<path style="stroke: rgb(0,0,0); stroke-width: 1; stroke-dasharray: none; stroke-linecap: butt; stroke-dashoffset: 0; stroke-linejoin: miter; stroke-miterlimit: 4; fill: rgb(255,255,255); fill-opacity: 0; fill-rule: nonzero; opacity: 1;" vector-effect="non-scaling-stroke"  transform=" translate(0, 0)" d="M 0 0" stroke-linecap="round" />
</g>
<g transform="matrix(1.28 0 0 1.28 268.9 305.73)" id="1q-Jh7mLcp_ISf2C0Ew6v"  >
<path style="stroke: rgb(105,114,163); stroke-width: 0; stroke-dasharray: none; stroke-linecap: butt; stroke-dashoffset: 0; stroke-linejoin: miter; stroke-miterlimit: 4; fill: rgb(251,248,205); fill-rule: nonzero; opacity: 1;" vector-effect="non-scaling-stroke"  transform=" translate(0, 0)" d="M 0 -20.33445 C 11.22462 -20.33445 20.33445 -11.22462 20.33445 0 C 20.33445 11.22462 11.22462 20.33445 0 20.33445 C -11.22462 20.33445 -20.33445 11.22462 -20.33445 0 C -20.33445 -11.22462 -11.22462 -20.33445 0 -20.33445 z" stroke-linecap="round" />
</g>
<g transform="matrix(0.86 0 0 0.86 379.4 340.02)" id="5j0QPPW4ThOx4bbuw9jWE"  >
<path style="stroke: rgb(105,114,163); stroke-width: 0; stroke-dasharray: none; stroke-linecap: butt; stroke-dashoffset: 0; stroke-linejoin: miter; stroke-miterlimit: 4; fill: rgb(251,248,205); fill-rule: nonzero; opacity: 1;" vector-effect="non-scaling-stroke"  transform=" translate(0, 0)" d="M 0 -20.33445 C 11.22462 -20.33445 20.33445 -11.22462 20.33445 0 C 20.33445 11.22462 11.22462 20.33445 0 20.33445 C -11.22462 20.33445 -20.33445 11.22462 -20.33445 0 C -20.33445 -11.22462 -11.22462 -20.33445 0 -20.33445 z" stroke-linecap="round" />
</g>
<g transform="matrix(1.53 0 0 1.67 310.4 120.07)" id="-6rVcJD0UuB-opbMs43yV"  >
<filter id="SVGID_2" y="-23%" height="146%" x="-22%" width="144%" >
	<feGaussianBlur in="SourceAlpha" stdDeviation="0"></feGaussianBlur>
	<feOffset dx="3" dy="2" result="oBlur" ></feOffset>
	<feFlood flood-color="rgb(2,121,77)" flood-opacity="1"/>
	<feComposite in2="oBlur" operator="in" />
	<feMerge>
		<feMergeNode></feMergeNode>
		<feMergeNode in="SourceGraphic"></feMergeNode>
	</feMerge>
</filter>
<path style="stroke: rgb(11,141,92); stroke-width: 1; stroke-dasharray: none; stroke-linecap: butt; stroke-dashoffset: 0; stroke-linejoin: miter; stroke-miterlimit: 4; fill: rgb(5,141,93); fill-rule: nonzero; opacity: 1;filter: url(#SVGID_2);" vector-effect="non-scaling-stroke"  transform=" translate(0, 0)" d="M 9.5241 38.30421 C 12.53377 38.52101 16.19933 36.085089999999994 16.72944 34.93533 L 21.80506 24.53986 L 34.33255 2.9361400000000017 L 34.33255 2.9361400000000017 C 36.139199999999995 -0.1794299999999982 38.404869999999995 -3.052669999999998 41.065929999999994 -5.602849999999998 L 45.02016999999999 -9.392329999999998 L 45.02016999999999 -9.392329999999998 C 48.91000999999999 -13.120099999999997 54.75202999999999 -14.536829999999998 60.14578999999999 -13.060389999999998 L 64.82381999999998 -11.779869999999999 L 86.08733999999998 0.9761400000000009 L 92.95089999999999 -8.12956 L 92.95089999999999 -8.12956 C 92.95249999999999 -8.131689999999999 92.95298999999999 -8.13435 92.95222999999999 -8.13684 C 92.95146999999999 -8.13933 92.94954999999999 -8.14138 92.94697999999998 -8.142439999999999 C 85.24480999999999 -11.31857 69.60705999999999 -17.76708 69.60705999999999 -17.76708 C 64.42956 -20.15338 55.09810999999999 -23.978279999999998 49.57387999999999 -22.5698 C 47.530799999999985 -22.04889 42.66963999999999 -23.3263 37.56405999999999 -16.91541 C 34.19507999999999 -12.685090000000002 30.75890999999999 -8.267870000000002 28.78364999999999 -5.781990000000002 C 24.96748999999999 -0.9793200000000022 21.46674999999999 6.7422499999999985 18.192869999999992 13.060419999999999 L 18.192869999999992 13.060419999999999 C 18.023659999999992 13.386959999999998 17.81685999999999 13.69601 17.57597999999999 13.982309999999998 L 12.518809999999991 20.07454 C 12.518809999999991 20.07454 6.357879999999992 16.919249999999998 0.5071399999999908 9.576669999999998 C -1.926270000000009 6.522779999999998 -4.277980000000009 2.715869999999998 -6.278180000000009 -0.8446100000000012 L -6.278180000000009 -0.8446100000000012 C -11.874490000000009 -10.80639 -19.691900000000008 -19.580669999999998 -29.22440000000001 -26.599510000000002 C -32.82166000000001 -29.24819 -40.267460000000014 -34.46089 -40.267460000000014 -34.46089 C -41.653120000000015 -35.92958 -53.15904000000001 -39.31505 -57.68912000000002 -38.03382 C -57.68912000000002 -38.03382 -59.317000000000014 -37.86457 -60.11879000000002 -37.78121 L -60.11879000000002 -37.78121 C -68.56255000000002 -36.90332 -76.28678000000002 -33.00783 -81.61245000000002 -26.94151 L -92.95257000000002 -14.024310000000002 L -87.15860000000002 -8.138170000000002 L -72.34788000000002 -22.04108 L -72.34788000000002 -22.04108 C -69.87698000000002 -24.36052 -66.90815000000002 -26.18568 -63.62868000000002 -27.401400000000002 L -63.38779000000002 -27.490700000000004 L -63.38779000000002 -27.490700000000004 C -56.34387000000002 -30.101930000000003 -48.31373000000002 -29.066580000000005 -42.33025000000002 -24.775690000000004 L -41.450560000000024 -24.144840000000006 L -41.450560000000024 -24.144840000000006 C -28.011770000000027 -14.507560000000005 -17.182070000000024 -2.159250000000007 -9.804450000000024 11.938909999999996 L -0.9966900000000241 28.769969999999997 L -0.9966900000000241 28.769969999999997 C 1.1999999999999758 32.967699999999994 4.918319999999976 36.33735 9.524109999999975 38.30422 z" stroke-linecap="round" />
</g>
<g transform="matrix(1.75 0 0 0.96 326.28 200.44)" id="NALgYbuj7wU2JHY8_06Iv"  >
<filter id="SVGID_1" y="-22%" height="144%" x="-28%" width="156%" >
	<feGaussianBlur in="SourceAlpha" stdDeviation="0"></feGaussianBlur>
	<feOffset dx="3" dy="-1" result="oBlur" ></feOffset>
	<feFlood flood-color="rgb(3,141,90)" flood-opacity="1"/>
	<feComposite in2="oBlur" operator="in" />
	<feMerge>
		<feMergeNode></feMergeNode>
		<feMergeNode in="SourceGraphic"></feMergeNode>
	</feMerge>
</filter>
<path style="stroke: none; stroke-width: 1; stroke-dasharray: none; stroke-linecap: butt; stroke-dashoffset: 0; stroke-linejoin: miter; stroke-miterlimit: 4; fill: rgb(38,176,127); fill-rule: nonzero; opacity: 1;filter: url(#SVGID_1);" vector-effect="non-scaling-stroke"  transform=" translate(0, 0)" d="M 15.85872 -8.71941 C 15.94869 -8.500729999999999 16.02037 -8.2591 16.07145 -8.00236 L 17.51419 -0.7504199999999992 L 17.51419 -0.7504199999999992 C 18.590899999999998 4.661650000000001 18.408939999999998 10.63647 17.01018 15.799840000000003 C 15.611409999999998 20.963210000000004 13.116229999999998 24.870670000000004 10.098529999999998 26.623510000000003 C 6.906839999999999 28.477410000000003 5.097209999999999 28.889550000000003 0.03385999999999889 29.068800000000003 C -4.248620000000001 29.220410000000005 -5.999340000000001 29.091300000000004 -8.85157 27.785470000000004 L -8.85157 27.785470000000004 C -12.31758 26.198640000000005 -15.23703 21.968970000000006 -16.859340000000003 16.183890000000005 C -18.48166 10.398810000000005 -18.648580000000003 3.6226500000000055 -17.317200000000003 -2.4024799999999935 L -15.994220000000004 -8.389589999999995 L -11.934940000000005 -18.256219999999995 L -11.934940000000005 -18.256219999999995 C -9.122240000000005 -25.092879999999994 -4.698730000000005 -29.118949999999998 0.00010999999999583565 -29.118949999999998 C 4.6989499999999955 -29.118949999999998 9.122449999999995 -25.092879999999997 11.935159999999996 -18.25622 z" stroke-linecap="round" />
</g>
<g transform="matrix(-1.37 -1.28 1.73 -1.85 119.26 150.11)" id="PIa5EI6yPF_90EtFGKggC"  >
<filter id="SVGID_3" y="-27%" height="154%" x="-27%" width="154%" >
	<feGaussianBlur in="SourceAlpha" stdDeviation="0"></feGaussianBlur>
	<feOffset dx="-5.17" dy="6.19" result="oBlur" ></feOffset>
	<feFlood flood-color="rgb(45,176,130)" flood-opacity="1"/>
	<feComposite in2="oBlur" operator="in" />
	<feMerge>
		<feMergeNode></feMergeNode>
		<feMergeNode in="SourceGraphic"></feMergeNode>
	</feMerge>
</filter>
<path style="stroke: none; stroke-width: 1; stroke-dasharray: none; stroke-linecap: butt; stroke-dashoffset: 0; stroke-linejoin: miter; stroke-miterlimit: 4; fill: rgb(87,190,143); fill-rule: nonzero; opacity: 1;filter: url(#SVGID_3);" vector-effect="non-scaling-stroke"  transform=" translate(0, 0)" d="M 15.7212 -28.53163 C 24.99308 -20.61285 31.28933 -11.03144 33.97945 -0.7468399999999988 L 33.97945 -0.7468399999999988 L 33.97945 -0.7468399999999988 C 38.22421 15.481290000000001 27.66397 31.85958 7.942409999999999 39.635 L 3.6108199999999986 41.34277 L 3.6108199999999986 41.34277 C -0.5468900000000012 42.98199 -5.378550000000001 43.42326 -9.95053 42.58131 L -12.31517 42.14585 L -12.31517 42.14585 C -17.48038 41.19465 -21.87726 38.696380000000005 -24.451 35.25036 C -26.23419 32.86283 -28.971870000000003 29.68416 -29.81986 28.00128 C -34.00428 19.69705 -35.94719 8.59102 -34.35714 -1.1371399999999987 C -34.10371 -2.688959999999999 -33.61414 -4.073679999999999 -33.048230000000004 -5.773819999999999 C -32.23787 -8.208369999999999 -32.166360000000005 -8.014489999999999 -32.008 -9.151729999999999 L -32.008 -9.151729999999999 C -30.797840000000004 -17.842389999999998 -25.777520000000003 -26.001799999999996 -17.71273 -32.38547 L -5.3470200000000006 -42.18215 L -5.3470200000000006 -42.18215 C -4.67419 -42.7152 -3.7269300000000003 -43.01185 -2.7411200000000004 -42.99823 C -1.7553100000000006 -42.984609999999996 -0.8237000000000005 -42.66201 -0.17824000000000062 -42.110749999999996 z" stroke-linecap="round" />
</g>
<g transform="matrix(0.18 0.14 -0.95 1.26 114.42 142.02)" id="hLMGmLgzN0NnD14T4HuV2"  >
<path style="stroke: rgb(11,141,92); stroke-width: 0; stroke-dasharray: none; stroke-linecap: butt; stroke-dashoffset: 0; stroke-linejoin: miter; stroke-miterlimit: 4; fill: rgb(3,141,90); fill-rule: nonzero; opacity: 1;" vector-effect="non-scaling-stroke"  transform=" translate(0, 0)" d="M -52.4075 19.24641 C -81.55779 1.804660000000002 -76.62089 -16.47606 -38.15445 -33.530919999999995 L -1.0091999999999999 -50 L 17.45891 -49.25114 L 17.45891 -49.25114 C 31.91641 -48.6649 43.84625 -47.17635 50.03631 -45.18627 C 56.22637 -43.19619 56.04032 -40.90917 49.52827 -38.94099 L 41.62062 -36.55101 L 41.62062 -36.55101 C -14.725290000000001 -19.521209999999996 -22.09939 0.07580000000000098 21.131610000000002 17.899480000000004 L 67.3066 36.936930000000004 L 67.3066 36.936930000000004 C 74.58144 39.93627000000001 71.40366 43.26296000000001 58.783300000000004 45.85965 C 46.162940000000006 48.45633 25.669860000000007 49.999990000000004 3.817680000000003 49.999990000000004 L -1.0091899999999976 49.999990000000004 z" stroke-linecap="round" />
</g>
<g transform="matrix(-1.13 1.5 -2.02 -1.52 510.03 168.75)" id="aiKdHJT5guWnlXfmjWOhv"  >
<filter id="SVGID_4" y="-25%" height="150%" x="-26%" width="152%" >
	<feGaussianBlur in="SourceAlpha" stdDeviation="0"></feGaussianBlur>
	<feOffset dx="-4.41" dy="-4.19" result="oBlur" ></feOffset>
	<feFlood flood-color="rgb(45,176,130)" flood-opacity="1"/>
	<feComposite in2="oBlur" operator="in" />
	<feMerge>
		<feMergeNode></feMergeNode>
		<feMergeNode in="SourceGraphic"></feMergeNode>
	</feMerge>
</filter>
<path style="stroke: none; stroke-width: 1; stroke-dasharray: none; stroke-linecap: butt; stroke-dashoffset: 0; stroke-linejoin: miter; stroke-miterlimit: 4; fill: rgb(87,190,143); fill-rule: nonzero; opacity: 1;filter: url(#SVGID_4);" vector-effect="non-scaling-stroke"  transform=" translate(0, 0)" d="M 15.08821 -28.4293 C 24.75642 -20.795260000000003 31.30856 -11.28745 33.985640000000004 -1.007200000000001 L 33.985640000000004 -1.007200000000001 L 33.985640000000004 -1.007200000000001 C 38.22247 15.19058 27.695890000000006 31.540359999999996 8.041230000000002 39.2894 L 3.594890000000002 41.04242 L 3.594890000000002 41.04242 C -0.556569999999998 42.67918 -5.378329999999997 43.11977 -9.941909999999996 42.27937 L -12.326279999999997 41.84028 L -12.326279999999997 41.84028 C -17.488069999999997 40.88971 -21.88366 38.3906 -24.459549999999997 34.9419 C -26.241819999999997 32.55574 -28.977709999999995 29.378699999999995 -29.825219999999995 27.696759999999998 C -34.00964 19.392529999999997 -35.952549999999995 8.286499999999997 -34.3625 -1.4416600000000024 C -34.109069999999996 -2.9934800000000026 -33.619499999999995 -4.378200000000002 -33.05359 -6.0783400000000025 C -32.16554 -8.746270000000003 -32.08482 -8.534190000000002 -31.92268 -9.781310000000003 L -31.92268 -9.781310000000003 C -30.79862 -18.426980000000004 -25.80717 -26.546060000000004 -17.74181 -32.84785 L -7.021790000000001 -41.818 L -7.021790000000001 -41.818 C -6.371470000000001 -42.36994 -5.433680000000001 -42.689409999999995 -4.445000000000001 -42.695809999999994 C -3.456320000000001 -42.702209999999994 -2.511150000000001 -42.394929999999995 -1.847910000000001 -41.85148999999999 z" stroke-linecap="round" />
</g>
<g transform="matrix(-0.14 0.15 -1.19 -1.15 521.46 157.57)" id="1PaW95sDBYKhR0-PqacuI"  >
<path style="stroke: rgb(11,141,92); stroke-width: 0; stroke-dasharray: none; stroke-linecap: butt; stroke-dashoffset: 0; stroke-linejoin: miter; stroke-miterlimit: 4; fill: rgb(3,141,90); fill-rule: nonzero; opacity: 1;" vector-effect="non-scaling-stroke"  transform=" translate(0, 0)" d="M -53.62765 26.35049 C -87.80718 12.65182 -96.38803 -1.8138599999999983 -78.7341 -15.97421 L -30.49783 -54.66492 L 12.005159999999997 -49.27159 L 12.005159999999997 -49.27159 C 30.114269999999998 -46.973670000000006 38.005739999999996 -43.74237 33.17505 -40.603210000000004 L -5.389569999999999 -15.542530000000003 L -5.389569999999999 -15.542530000000003 C -25.3155 -2.5939400000000035 -16.05487 10.775329999999997 21.396140000000003 23.127129999999998 L 83.47539 43.60162 L 83.47539 43.60162 C 91.1119 46.12023 88.20212000000001 48.937419999999996 75.68566 51.14346999999999 C 63.1692 53.34951999999999 42.63192 54.66492999999999 20.705579999999998 54.66492999999999 L 17.019669999999998 54.66492999999999 z" stroke-linecap="round" />
</g>
<g transform="matrix(0.13 0.21 -0.34 0.21 233.26 545.83)" id="XBkICYVQPfAp1tECR3xmm"  >
<path style="stroke: rgb(11,141,92); stroke-width: 0; stroke-dasharray: none; stroke-linecap: butt; stroke-dashoffset: 0; stroke-linejoin: miter; stroke-miterlimit: 4; fill: rgb(251,248,205); fill-rule: nonzero; opacity: 1;" vector-effect="non-scaling-stroke"  transform=" translate(0, 0)" d="M -41.45299 -14.14572 C -41.45299 -29.2271 -21.6199 -41.45298 2.8454600000000028 -41.45298 L 2.8454600000000028 -41.45298 L 2.8454600000000028 -41.45298 C 24.167800000000003 -41.45298 41.452980000000004 -30.797739999999997 41.452980000000004 -17.653829999999996 L 41.452980000000004 16.408330000000003 L 41.452980000000004 16.408330000000003 C 41.452980000000004 30.24011 23.263200000000005 41.45299 0.8249700000000004 41.45299 L -0.5688799999999996 41.45299 L -0.5688799999999996 41.45299 C -23.14855 41.45299 -41.45299 30.16943 -41.45299 16.25046 z" stroke-linecap="round" />
</g>
<g transform="matrix(0.2 -0.15 0.25 0.32 375.1 578.43)" id="RtEN43zyxKfkThYmIk-w_"  >
<path style="stroke: rgb(11,141,92); stroke-width: 0; stroke-dasharray: none; stroke-linecap: butt; stroke-dashoffset: 0; stroke-linejoin: miter; stroke-miterlimit: 4; fill: rgb(251,248,205); fill-rule: nonzero; opacity: 1;" vector-effect="non-scaling-stroke"  transform=" translate(0, 0)" d="M -41.45299 -13.96926 C -41.45299 -29.1481 -21.57588 -41.452980000000004 2.94379 -41.452980000000004 L 2.94379 -41.452980000000004 L 2.94379 -41.452980000000004 C 24.21183 -41.452980000000004 41.45299 -30.779880000000006 41.45299 -17.613950000000003 L 41.45299 16.246489999999994 L 41.45299 16.246489999999994 C 41.45299 30.167659999999994 23.22284 41.45298999999999 0.7347999999999999 41.45298999999999 L -0.47813000000000017 41.45298999999999 L -0.47813000000000017 41.45298999999999 C -23.10792 41.45298999999999 -41.45299 30.09651999999999 -41.45299 16.08759999999999 z" stroke-linecap="round" />
</g>
<g transform="matrix(0.17 0.18 -0.29 0.28 271.63 576.07)" id="kmktlXgNR4YO_mSOMgyiD"  >
<path style="stroke: rgb(11,141,92); stroke-width: 0; stroke-dasharray: none; stroke-linecap: butt; stroke-dashoffset: 0; stroke-linejoin: miter; stroke-miterlimit: 4; fill: rgb(251,248,205); fill-rule: nonzero; opacity: 1;" vector-effect="non-scaling-stroke"  transform=" translate(0, 0)" d="M -41.45299 -13.96928 C -41.45299 -29.14811 -21.57589 -41.45299 2.9437599999999975 -41.45299 L 2.9438199999999974 -41.45299 L 2.9438199999999974 -41.45299 C 24.21184 -41.45299 41.45298 -30.779899999999998 41.45298 -17.61398 L 41.45298 16.2465 L 41.45298 16.2465 C 41.45298 30.16766 23.222839999999998 41.45299 0.7348199999999991 41.45299 L -0.47815000000000096 41.45299 L -0.47815000000000096 41.45299 C -23.10792 41.45299 -41.45298 30.096519999999998 -41.45298 16.08761 z" stroke-linecap="round" />
</g>
<g transform="matrix(0.12 -0.21 0.35 0.2 408.96 550.07)" id="H4puzWv8DpF7vx6brjd9C"  >
<path style="stroke: rgb(11,141,92); stroke-width: 0; stroke-dasharray: none; stroke-linecap: butt; stroke-dashoffset: 0; stroke-linejoin: miter; stroke-miterlimit: 4; fill: rgb(251,248,205); fill-rule: nonzero; opacity: 1;" vector-effect="non-scaling-stroke"  transform=" translate(0, 0)" d="M -41.45299 -13.96926 C -41.45299 -29.1481 -21.57588 -41.452980000000004 2.94379 -41.452980000000004 L 2.9438 -41.452980000000004 L 2.9438 -41.452980000000004 C 24.21183 -41.452980000000004 41.452980000000004 -30.77989 41.452980000000004 -17.613960000000002 L 41.452980000000004 16.246489999999998 L 41.452980000000004 16.246489999999998 C 41.452980000000004 30.167659999999998 23.222830000000005 41.45299 0.7347900000000038 41.45299 L -0.47813999999999623 41.45299 L -0.47813999999999623 41.45299 C -23.107929999999996 41.45299 -41.452999999999996 30.096519999999998 -41.452999999999996 16.0876 z" stroke-linecap="round" />
</g>
<g transform="matrix(0.25 0 0 0.4 321.14 584.52)" id="X0ZWsdmcIUa25FpGp9A29"  >
<path style="stroke: rgb(11,141,92); stroke-width: 0; stroke-dasharray: none; stroke-linecap: butt; stroke-dashoffset: 0; stroke-linejoin: miter; stroke-miterlimit: 4; fill: rgb(251,248,205); fill-rule: nonzero; opacity: 1;" vector-effect="non-scaling-stroke"  transform=" translate(0, 0)" d="M -41.45299 -13.96926 C -41.45299 -29.1481 -21.57588 -41.452980000000004 2.94379 -41.452980000000004 L 2.94379 -41.452980000000004 L 2.94379 -41.452980000000004 C 24.21183 -41.452980000000004 41.45299 -30.779880000000006 41.45299 -17.613950000000003 L 41.45299 16.246489999999994 L 41.45299 16.246489999999994 C 41.45299 30.167659999999994 23.22284 41.45298999999999 0.7347999999999999 41.45298999999999 L -0.47813000000000017 41.45298999999999 L -0.47813000000000017 41.45298999999999 C -23.10792 41.45298999999999 -41.45299 30.09651999999999 -41.45299 16.08759999999999 z" stroke-linecap="round" />
</g>
</svg>