<svg width="439.167" height="439.167" xmlns="http://www.w3.org/2000/svg">

 <g>
  <title>background</title>
  <rect fill="none" id="canvas_background" height="402" width="582" y="-1" x="-1"/>
 </g>
 <g>
  <title>Layer 1</title>
  <g id="svg_1">
   <g id="svg_2">
    <path fill="#ffffff" id="svg_3" d="m71.967,154.7c3.4,3.683 7.933,5.383 12.467,5.383c4.25,0 8.217,-1.417 11.617,-4.533l107.949,-99.167l0,258.117c0,9.35 7.65,17 17,17s17,-7.65 17,-17l0,-258.967l107.95,100.3c6.8,6.517 17.567,5.95 24.083,-0.85c6.517,-6.8 5.95,-17.567 -0.85,-24.083l-136,-126.083c-1.7,-1.7 -3.967,-2.833 -6.233,-3.683c-1.983,-0.567 -3.967,-1.134 -5.95,-1.134c-5.95,0 -11.05,3.117 -14.167,7.65l-134.016,122.967c-6.8,6.516 -7.367,17.283 -0.85,24.083z"/>
    <path fill="#ffffff" id="svg_4" d="m36.833,252.167c-9.35,0 -17,7.65 -17,17l0,153c0,9.35 7.65,17 17,17l365.5,0c9.35,0 17,-7.65 17,-17l0,-153c0,-9.35 -7.65,-17 -17,-17s-17,7.65 -17,17l0,136l-331.5,0l0,-136c0,-9.35 -7.65,-17 -17,-17z"/>
   </g>
  </g>
  <g id="svg_5"/>
  <g id="svg_6"/>
  <g id="svg_7"/>
  <g id="svg_8"/>
  <g id="svg_9"/>
  <g id="svg_10"/>
  <g id="svg_11"/>
  <g id="svg_12"/>
  <g id="svg_13"/>
  <g id="svg_14"/>
  <g id="svg_15"/>
  <g id="svg_16"/>
  <g id="svg_17"/>
  <g id="svg_18"/>
  <g id="svg_19"/>
 </g>
</svg>